<?xml version="1.0" standalone="no"?><!DOCTYPE svg PUBLIC "-//W3C//DTD SVG 1.1//EN" "http://www.w3.org/Graphics/SVG/1.1/DTD/svg11.dtd"><svg t="1576245516933" class="icon" viewBox="0 0 1070 1024" version="1.1" xmlns="http://www.w3.org/2000/svg" p-id="14536" xmlns:xlink="http://www.w3.org/1999/xlink" width="208.984375" height="200"><defs><style type="text/css"></style></defs><path d="M908.7128 348.798853a18.357834 18.357834 0 0 1-18.357834-18.357835V55.073503a18.357834 18.357834 0 0 0-18.357834-18.357834H578.271782a18.357834 18.357834 0 0 1 0-36.715669h293.72535a55.073503 55.073503 0 0 1 55.073503 55.073503v275.367515a18.357834 18.357834 0 0 1-18.357835 18.357835zM18.357834 348.798853a18.357834 18.357834 0 0 1-18.357834-18.357835V55.073503a55.073503 55.073503 0 0 1 55.073503-55.073503h257.009681a18.357834 18.357834 0 0 1 0 36.715669H55.073503a18.357834 18.357834 0 0 0-18.357834 18.357834v275.367515a18.357834 18.357834 0 0 1-18.357835 18.357835zM357.97777 945.428469H64.25242a55.073503 55.073503 0 0 1-55.073503-55.073503V587.450699a18.357834 18.357834 0 0 1 36.715669 0v302.904267a18.357834 18.357834 0 0 0 18.357834 18.357834h293.72535a18.357834 18.357834 0 0 1 0 36.715669zM156.041592 247.830764h504.840445a18.357834 18.357834 0 0 1 18.357834 18.357834 18.357834 18.357834 0 0 1-18.357834 18.357834H156.041592a18.357834 18.357834 0 0 1-18.357834-18.357834 18.357834 18.357834 0 0 1 18.357834-18.357834zM156.041592 422.23019h403.872356a18.357834 18.357834 0 0 1 18.357834 18.357834 18.357834 18.357834 0 0 1-18.357834 18.357835H156.041592a18.357834 18.357834 0 0 1-18.357834-18.357835 18.357834 18.357834 0 0 1 18.357834-18.357834zM156.041592 587.450699h302.904267a18.357834 18.357834 0 0 1 18.357834 18.357835 18.357834 18.357834 0 0 1-18.357834 18.357834H156.041592a18.357834 18.357834 0 0 1-18.357834-18.357834 18.357834 18.357834 0 0 1 18.357834-18.357835zM947.631409 875.760488L1064.754392 992.608103a18.357834 18.357834 0 0 1 0 25.976336 18.357834 18.357834 0 0 1-25.884546 0l-117.122983-116.847616a18.357834 18.357834 0 0 1 0-25.976335 18.357834 18.357834 0 0 1 25.976335 0z" fill="#515151" p-id="14537"></path><path d="M771.029043 963.786303a238.651847 238.651847 0 1 1 238.651846-238.651846 238.651847 238.651847 0 0 1-238.651846 238.651846z m0-440.588024a201.936178 201.936178 0 1 0 201.936178 201.936178 201.936178 201.936178 0 0 0-201.936178-201.936178z" fill="#515151" p-id="14538"></path></svg>